<?xml version="1.0" encoding="utf-8"?>
<!-- Generator: Adobe Illustrator 16.0.0, SVG Export Plug-In . SVG Version: 6.00 Build 0)  -->
<!DOCTYPE svg PUBLIC "-//W3C//DTD SVG 1.1//EN" "http://www.w3.org/Graphics/SVG/1.1/DTD/svg11.dtd">
<svg version="1.1" id="Layer_1" xmlns="http://www.w3.org/2000/svg" xmlns:xlink="http://www.w3.org/1999/xlink" x="0px" y="0px"
	 width="600px" height="600px" viewBox="0 0 600 600" enable-background="new 0 0 600 600" xml:space="preserve">
<path fill="none" stroke="#241CC6" stroke-width="4" stroke-miterlimit="10" d="M100,50c100,0,100,500,0,500S0,50,100,50"/>
<path fill="none" stroke="#07770A" stroke-width="4" stroke-miterlimit="10" d="M500,50c100,0,100,500,0,500S400,50,500,50"/>
<text id="LabelU" transform="matrix(1 0 0 1 25 45)" enable-background="new    "><tspan x="0" y="0" font-family="'BitstreamVeraSansMono-Roman'" font-size="32">Entit</tspan><tspan x="96.328" y="0" font-family="'MyriadPro-Regular'" font-size="32">ăț</tspan><tspan x="122.344" y="0" font-family="'BitstreamVeraSansMono-Roman'" font-size="32">i</tspan></text>
<text id="LabelU_1_" transform="matrix(1 0 0 1 425 45)" font-family="'BitstreamVeraSansMono-Roman'" font-size="32">Articole</text>
<path stroke="#000000" stroke-width="5" d="M100,100l400,100"/>
<path stroke="#000000" stroke-width="5" d="M100,200l400,100"/>
<path stroke="#000000" stroke-width="5" d="M100,500l400-300"/>
<path stroke="#000000" stroke-width="5" d="M100,300l400,200"/>
<path stroke="#000000" stroke-width="5" d="M100,500h400"/>
<path stroke="#000000" stroke-width="5" d="M100,200h400"/>
<path stroke="#000000" stroke-width="5" d="M100,400l400-100"/>
<path stroke="#000000" stroke-width="5" d="M100,300l400,100"/>
<circle fill="#5050A0" stroke="#000000" stroke-width="1.5" cx="100" cy="100" r="10"/>
<circle fill="#5050A0" stroke="#000000" stroke-width="1.5" cx="100" cy="200" r="10"/>
<circle fill="#5050A0" stroke="#000000" stroke-width="1.5" cx="100" cy="300" r="10"/>
<circle fill="#5050A0" stroke="#000000" stroke-width="1.5" cx="100" cy="400" r="10"/>
<circle fill="#5050A0" stroke="#000000" stroke-width="1.5" cx="100" cy="500" r="10"/>
<circle fill="#50A050" stroke="#000000" stroke-width="1.5" cx="500" cy="200" r="10"/>
<circle fill="#50A050" stroke="#000000" stroke-width="1.5" cx="500" cy="300" r="10"/>
<circle fill="#50A050" stroke="#000000" stroke-width="1.5" cx="500" cy="400" r="10"/>
<circle fill="#50A050" stroke="#000000" stroke-width="1.5" cx="500" cy="500" r="10"/>
</svg>
